<svg width="29" height="30" xmlns="http://www.w3.org/2000/svg" xmlns:xlink="http://www.w3.org/1999/xlink"><defs><path id="a" d="M0 .018h28.982V29H0z"/></defs><g fill="none" fill-rule="evenodd"><g transform="translate(0 .22)"><mask id="b" fill="#fff"><use xlink:href="#a"/></mask><path d="M14.491.018c8.003 0 14.491 6.487 14.491 14.49 0 8.004-6.488 14.492-14.49 14.492C6.487 29 0 22.512 0 14.509 0 6.505 6.488.018 14.491.018" fill="#FFF" mask="url(#b)"/></g><path d="M14.496 10.275a5.192 5.192 0 0 0-2.238 3.593 5.824 5.824 0 0 0-.044 1.336 5.191 5.191 0 0 0 2.603 4.173c.611.3 1.268.5 1.943.588.15.013.3.022.454.022 1.871 0 3.21-.951 4.219-2.051a.686.686 0 0 1 .534-.236.768.768 0 0 1 .535.207c.14.141.216.335.208.534a.808.808 0 0 1-.178.506 6.93 6.93 0 0 1-5.318 2.585 7.008 7.008 0 0 1-2.484-.448 9.374 9.374 0 0 1-1.932-1.131 6.73 6.73 0 0 1-2.387-5.225 6.676 6.676 0 0 1 4.085-6.26 7.009 7.009 0 0 1 2.718-.542 6.754 6.754 0 0 1 4.694 1.872c.164.142.26.347.267.564a.787.787 0 0 1-.178.475.73.73 0 0 1-.564.268.9.9 0 0 1-.476-.148c-1.188-.92-2.346-1.486-3.743-1.486-.32 0-.64.03-.954.09-.62.15-1.214.39-1.764.714" fill="#F58025"/><path d="M17.76 17.907a.763.763 0 0 0-.535-.207.687.687 0 0 0-.535.236 6.45 6.45 0 0 1-1.873 1.441 5.77 5.77 0 0 1-2.02.575 6.585 6.585 0 0 1-.677.035 5.954 5.954 0 0 1-4.57-2.05.686.686 0 0 0-.535-.237.766.766 0 0 0-.534.207.718.718 0 0 0-.209.534c0 .184.064.362.179.506 1.288 1.61 3.4 2.585 5.67 2.585a7.772 7.772 0 0 0 2.61-.448 7.14 7.14 0 0 0 2.03-1.117 6.33 6.33 0 0 0 1.028-1.018.81.81 0 0 0 .178-.506.715.715 0 0 0-.208-.536m.819-3.333a6.674 6.674 0 0 0-4.082-6.106 7.007 7.007 0 0 0-2.72-.542 6.753 6.753 0 0 0-4.692 1.872.777.777 0 0 0-.268.564.79.79 0 0 0 .178.475.73.73 0 0 0 .565.268.897.897 0 0 0 .475-.149c1.189-.92 2.348-1.486 3.744-1.486.32 0 .64.03.955.09.63.119 1.229.362 1.763.715a5.179 5.179 0 0 1 2.225 3.545h-4.455l-.008.048a5.792 5.792 0 0 0-.044 1.336h5.68a.61.61 0 0 0 .685-.624v-.006z" fill="#61116A"/></g></svg>