<svg width="357" height="90" xmlns:xlink="http://www.w3.org/1999/xlink" xmlns="http://www.w3.org/2000/svg"><defs><path d="M0 89.224h356.251V0H0v89.224z" id="a"/><clipPath id="b"><use xlink:href="#a"/></clipPath></defs><path d="M105.382 68.084l-4.276-5.463c-.25-.334-.345-.491-.397-.699v6.065h-1.111v-7.565h1.206l4.275 5.38c.145.16.269.458.303.695v-6.075h1.09v7.662h-1.09zm11.363-6.668v6.571h-1.185v-6.57h-2.686v-.995h6.568v.994h-2.697zm9.993 6.571V64.6h-4.78v3.388h-1.203v-7.565h1.204v3.18h4.78v-3.18h1.186v7.565h-1.187zm3.466 0v-7.565h4.688v.994h-3.48v2.186h2.88v.997h-2.88v2.394h3.571v.994h-4.779zm17.003-.347c-.568.333-1.422.567-2.152.567-.728 0-1.584-.234-2.166-.568-.79-.478-1.091-1.233-1.091-2.738v-4.48h1.187v4.685c0 1.374.708 2.09 2.07 2.09 1.362 0 2.075-.716 2.075-2.09v-4.684h1.187V64.9c0 1.505-.299 2.26-1.11 2.738m9.232.446l-4.277-5.463c-.25-.334-.347-.491-.39-.699v6.065h-1.115v-7.565h1.207l4.276 5.38c.143.16.266.458.299.695v-6.075h1.09v7.662h-1.09zm-60.318-.098h1.205v-7.564H96.12v7.564z" fill="#472A2B"/><path d="M0 89.224h356.251V0H0v89.224z" fill="none"/><g clip-path="url(#b)"><path d="M160.124 67.986h1.202v-7.564h-1.202v7.564zm6.909.19h-.64l-3.289-7.758h1.298l2.278 5.458c.05.101.083.21.083.348a.886.886 0 0 1 .094-.348l2.123-5.458h1.292l-3.24 7.758zm5.019-.189v-7.565h4.68v.994h-3.478v2.186h2.879v.997h-2.88v2.394h3.578v.994h-4.78zm10.384-6.366c-.254-.19-.348-.205-1.218-.205h-1.19v2.485h1.19c.776 0 .929-.032 1.262-.313.287-.254.412-.558.412-.968 0-.444-.156-.777-.456-.999zm.679 6.366L181.12 64.9h-1.093v3.087h-1.202v-7.565h2.55c1.818 0 2.817.757 2.817 2.152 0 1.17-.713 2.055-1.772 2.23l2.088 3.183h-1.394zm7.759-6.064c-.396-.268-.57-.332-.948-.458a3.845 3.845 0 0 0-1.06-.158c-.969 0-1.554.348-1.554.932 0 .158.03.301.095.397.22.332.476.477 1.948 1.187 1.424.697 1.882 1.22 1.882 2.157 0 1.343-1.048 2.147-2.754 2.147-.566 0-1.108-.08-1.55-.237-.321-.12-.538-.235-1.079-.567l.54-1.03c.475.348.68.477.981.603.38.155.822.249 1.25.249.887 0 1.409-.375 1.409-1.012 0-.508-.253-.842-.858-1.122l-1.372-.667c-1.157-.552-1.676-1.186-1.676-1.993 0-1.25 1.073-2.058 2.75-2.058.492 0 .984.066 1.41.19.346.093.535.187 1.012.446l-.426.994zm2.788 6.063h1.2v-7.564h-1.2v7.564zm6.728-6.57v6.571h-1.187v-6.57h-2.69v-.995h6.564v.994h-2.687zm7.694 3.184v3.387h-1.193V64.6l-2.684-4.177h1.392l1.993 3.084 1.994-3.084h1.392l-2.894 4.177zm12.696-3.31c-1.662 0-2.929 1.252-2.929 2.912 0 1.663 1.267 2.929 2.93 2.929 1.66 0 2.911-1.266 2.911-2.93 0-1.66-1.25-2.91-2.912-2.91m0 6.837c-2.44 0-4.194-1.649-4.194-3.926 0-2.262 1.754-3.929 4.194-3.929 2.421 0 4.193 1.667 4.193 3.929 0 2.277-1.772 3.926-4.193 3.926m7.38-6.712v2.295h2.882v.995h-2.882v3.281h-1.206v-7.565h4.688v.994h-3.482zm12.698 0v6.571h-1.19v-6.57h-2.691v-.995h6.568v.994h-2.687zm7.598-.126c-1.662 0-2.93 1.252-2.93 2.912 0 1.663 1.268 2.929 2.93 2.929 1.659 0 2.91-1.266 2.91-2.93 0-1.66-1.251-2.91-2.91-2.91m0 6.837c-2.44 0-4.197-1.649-4.197-3.926 0-2.262 1.757-3.929 4.197-3.929 2.416 0 4.19 1.667 4.19 3.929 0 2.277-1.774 3.926-4.19 3.926m9.78-6.507c-.255-.19-.348-.205-1.22-.205h-1.183v2.485h1.184c.779 0 .937-.032 1.268-.313.284-.254.41-.558.41-.968 0-.444-.156-.777-.46-.999zm.68 6.366l-1.991-3.087h-1.092v3.087h-1.2v-7.565h2.544c1.822 0 2.817.757 2.817 2.152 0 1.17-.712 2.055-1.77 2.23l2.089 3.183h-1.397zm6.633-6.697c-1.655 0-2.924 1.252-2.924 2.912 0 1.663 1.269 2.929 2.924 2.929 1.664 0 2.914-1.266 2.914-2.93 0-1.66-1.25-2.91-2.914-2.91m0 6.837c-2.437 0-4.193-1.649-4.193-3.926 0-2.262 1.756-3.929 4.193-3.929 2.426 0 4.2 1.667 4.2 3.929 0 2.277-1.774 3.926-4.2 3.926m11.637-.044l-4.271-5.463c-.254-.334-.35-.491-.398-.699v6.065h-1.105v-7.565h1.202l4.27 5.38c.146.16.27.458.302.695v-6.075h1.09v7.662h-1.09zm6.301-6.668v6.571h-1.186v-6.57h-2.687v-.995h6.566v.994h-2.693zm7.603-.126c-1.665 0-2.931 1.252-2.931 2.912 0 1.663 1.266 2.929 2.932 2.929 1.658 0 2.909-1.266 2.909-2.93 0-1.66-1.251-2.91-2.91-2.91m0 6.837c-2.442 0-4.2-1.649-4.2-3.926 0-2.262 1.758-3.929 4.2-3.929 2.417 0 4.193 1.667 4.193 3.929 0 2.277-1.776 3.926-4.192 3.926M94.762 39.44c-.531-1.266-.926-1.515-1.747-1.744-.344-.092-.708-.092-.887-.092-.206 0-.278-.067-.278-.205 0-.18.249-.208.595-.208 1.216 0 2.521.07 3.32.07.573 0 1.674-.07 2.821-.07.273 0 .523.045.523.208 0 .158-.136.205-.338.205-.372 0-.713.024-.895.158-.164.116-.233.279-.233.486 0 .296.208.935.531 1.76l3.935 10.397h.095c.982-2.513 3.962-9.892 4.51-11.404.116-.297.21-.642.21-.847a.438.438 0 0 0-.301-.434c-.28-.092-.623-.116-.914-.116-.205 0-.391-.022-.391-.18 0-.188.204-.233.641-.233 1.145 0 2.105.07 2.403.07.39 0 1.468-.07 2.157-.07.298 0 .48.045.48.208 0 .158-.14.205-.364.205-.233 0-.713 0-1.121.274-.3.204-.648.594-1.265 2.062-.891 2.155-1.513 3.39-2.745 6.21-1.467 3.342-2.548 5.837-3.05 6.984-.6 1.326-.735 1.695-1.05 1.695-.302 0-.437-.321-.871-1.396L94.762 39.44zm18.118 5.976c0-2.954 0-3.51-.02-4.124-.054-.663-.26-.895-.688-1.033a2.594 2.594 0 0 0-.733-.092c-.21 0-.326-.044-.326-.23 0-.112.163-.16.482-.16.757 0 2.129.048 2.701.048.504 0 1.817-.048 2.592-.048.251 0 .414.048.414.16 0 .186-.116.23-.323.23-.205 0-.368.023-.597.07-.55.091-.711.364-.756 1.055-.046.614-.046 1.17-.046 4.124v3.435c0 1.875 0 3.437.09 4.258.073.528.211.826.808.917.269.043.726.068 1.029.068.227 0 .319.113.319.204 0 .139-.159.21-.393.21-1.32 0-2.697-.071-3.25-.071-.46 0-1.83.07-2.633.07-.25 0-.39-.07-.39-.209 0-.09.07-.204.318-.204.299 0 .531-.025.714-.068.408-.09.523-.366.594-.939.094-.8.094-2.361.094-4.236v-3.435zm8.61 7.234c-1.991-1.67-2.516-3.87-2.516-5.75 0-1.33.434-3.614 2.358-5.34 1.468-1.28 3.386-2.06 6.389-2.06 1.26 0 2.018.092 2.936.208.755.116 1.419.254 2.016.32.226.026.296.117.296.23 0 .163-.05.39-.091 1.075-.05.645-.05 1.72-.074 2.108-.017.274-.092.481-.272.481-.158 0-.207-.16-.207-.412a2.75 2.75 0 0 0-.777-1.808c-.689-.664-2.041-1.145-3.894-1.145-1.766 0-2.885.318-3.802 1.095-1.493 1.288-1.855 3.163-1.855 5.068 0 4.624 3.574 6.82 6.278 6.82 1.78 0 2.77-.135 3.568-1.029.346-.387.62-.94.689-1.304.047-.299.093-.39.255-.39.132 0 .226.182.226.345 0 .227-.226 1.922-.434 2.588-.094.341-.186.432-.53.57-.8.321-2.335.437-3.638.437-2.75 0-5.085-.575-6.92-2.108m19.313-11.682l-3.001.072c-1.169.021-1.65.157-1.949.597-.202.27-.296.525-.348.658-.039.168-.089.26-.226.26-.131 0-.183-.12-.183-.324 0-.323.392-2.198.439-2.36.044-.25.116-.366.227-.366.158 0 .368.16.871.228a19.3 19.3 0 0 0 2.014.092h8.176c.647 0 1.08-.047 1.378-.092.318-.049.478-.09.552-.09.131 0 .156.116.156.412 0 .41-.048 1.853-.048 2.356-.017.205-.069.32-.182.32-.16 0-.204-.088-.227-.384l-.022-.21c-.046-.5-.575-1.097-2.384-1.117l-2.543-.052v7.88c0 1.785.024 3.322.115 4.17.067.551.18.919.778 1.007.278.045.733.07 1.033.07.227 0 .317.11.317.204 0 .138-.162.21-.388.21-1.327 0-2.675-.072-3.248-.072-.463 0-1.833.073-2.637.073-.257 0-.39-.073-.39-.211 0-.094.072-.205.318-.205.299 0 .556-.024.71-.069.413-.088.53-.456.598-1.031.094-.824.094-2.361.094-4.145v-7.881zm23.022 6.529c0-4.306-2.59-6.96-5.843-6.96-2.245 0-4.88 1.189-4.88 5.998 0 4.01 2.29 7.17 6.095 7.17 1.418 0 4.628-.667 4.628-6.208m-13.699-.365c0-3.324 2.337-7.627 8.455-7.627 5.084 0 8.24 2.818 8.24 7.28 0 4.47-3.253 7.974-8.446 7.974-5.868 0-8.249-4.165-8.249-7.627m21.651-.205c0 .204.04.274.18.343.434.135 1.031.182 1.535.182.796 0 1.073-.07 1.423-.32.615-.435 1.3-1.284 1.3-2.888 0-2.743-1.872-3.457-3.064-3.457-.508 0-.99.023-1.194.07-.14.047-.18.111-.18.276v5.794zm-2.571-1.51c0-2.954 0-3.509-.023-4.124-.039-.666-.227-.871-.868-1.056-.158-.046-.503-.07-.805-.07-.205 0-.343-.068-.343-.201 0-.141.161-.188.46-.188 1.056 0 2.335.047 2.748.047.689 0 2.52-.047 3.141-.047 1.28 0 2.743.114 3.825.825.572.39 1.416 1.38 1.416 2.685 0 1.438-.822 2.718-2.793 4.3 1.79 2.201 3.203 3.965 4.424 5.179 1.121 1.12 1.831 1.211 2.153 1.286.203.042.319.042.48.042.155 0 .246.11.246.204 0 .16-.13.21-.386.21h-1.923c-1.123 0-1.673-.114-2.2-.392-.87-.432-1.625-1.35-2.75-2.862-.799-1.051-1.647-2.36-1.9-2.658a.47.47 0 0 0-.367-.139l-1.809-.043c-.092 0-.155.043-.155.157v.277c0 1.81.017 3.32.11 4.145.07.575.16.942.778 1.032.299.044.736.069.985.069.162 0 .248.11.248.204 0 .139-.157.21-.407.21-1.17 0-2.84-.071-3.14-.071-.389 0-1.668.07-2.47.07-.254 0-.39-.07-.39-.209 0-.093.068-.204.32-.204a3 3 0 0 0 .709-.07c.412-.089.53-.456.591-1.03.095-.825.095-2.362.095-4.146v-3.432zm16.859 0c0-2.954 0-3.51-.02-4.124-.045-.663-.25-.895-.691-1.033a2.525 2.525 0 0 0-.729-.092c-.206 0-.324-.044-.324-.23 0-.112.165-.16.482-.16.756 0 2.13.048 2.703.048.505 0 1.808-.048 2.588-.048.254 0 .415.048.415.16 0 .186-.114.23-.319.23-.212 0-.366.023-.6.07-.548.091-.708.364-.752 1.055-.047.614-.047 1.17-.047 4.124v3.435c0 1.875 0 3.437.091 4.258.071.528.205.826.8.917.276.043.735.068 1.032.068.229 0 .32.113.32.204 0 .139-.16.21-.39.21-1.33 0-2.7-.071-3.25-.071-.46 0-1.835.07-2.634.07-.252 0-.39-.07-.39-.209 0-.09.07-.204.32-.204.296 0 .528-.025.713-.068.413-.09.526-.366.59-.939.092-.8.092-2.361.092-4.236v-3.435zm15.421 3.11c.09 0 .116-.044.09-.113l-1.901-4.947c-.023-.067-.047-.18-.091-.18-.072 0-.092.113-.114.18l-1.952 4.925c-.042.09 0 .135.075.135h3.893zm-4.311 1.081c-.116 0-.135.017-.177.134l-1.081 2.61c-.205.484-.294.965-.294 1.192 0 .343.18.55.797.55h.302c.248 0 .297.089.297.204 0 .162-.11.21-.32.21-.663 0-1.609-.071-2.247-.071-.208 0-1.284.072-2.338.072-.253 0-.364-.05-.364-.21 0-.116.071-.204.227-.204.187 0 .414-.025.597-.025.914-.134 1.258-.73 1.67-1.718l5.268-12.253c.229-.548.387-.778.598-.778.294 0 .391.183.599.617.477 1.081 3.844 9.048 5.127 12.002.78 1.764 1.353 2.016 1.72 2.087.296.043.526.068.752.068.183 0 .277.07.277.203 0 .162-.114.21-.874.21-.71 0-2.174 0-3.866-.048-.367-.023-.595-.023-.595-.162 0-.115.039-.182.25-.203.14-.025.275-.208.181-.435l-1.558-3.918c-.043-.117-.114-.134-.206-.134h-4.742zm21.334-5.771c0-3.481 0-4.126-.053-4.86-.04-.778-.225-1.143-.982-1.306-.182-.042-.57-.066-.893-.066-.25 0-.388-.048-.388-.206 0-.162.159-.207.504-.207 1.214 0 2.655.067 3.346.067.55 0 1.993-.067 2.815-.067.342 0 .5.045.5.207 0 .158-.132.206-.367.206-.249 0-.385.024-.659.066-.624.116-.804.503-.848 1.305-.045.735-.045 1.38-.045 4.861v3.205c0 3.319.659 4.715 1.787 5.634 1.028.848 2.082.937 2.862.937 1.007 0 2.242-.32 3.161-1.236 1.255-1.26 1.332-3.321 1.332-5.68v-2.86c0-3.481 0-4.126-.049-4.86-.047-.778-.233-1.143-.984-1.306a4.857 4.857 0 0 0-.825-.066c-.254 0-.393-.048-.393-.206 0-.162.16-.207.482-.207 1.17 0 2.61.067 2.632.067.276 0 1.72-.067 2.614-.067.32 0 .483.045.483.207 0 .158-.137.206-.414.206-.254 0-.39.024-.662.066-.623.116-.806.503-.848 1.305-.048.735-.048 1.38-.048 4.861v2.45c0 2.54-.254 5.244-2.178 6.892-1.626 1.396-3.272 1.651-4.764 1.651-1.214 0-3.408-.072-5.084-1.585-1.167-1.05-2.035-2.743-2.035-6.067v-3.34zm19.699 8.013c.042 1.512.294 1.968.686 2.107.34.11.735.138 1.056.138.224 0 .34.088.34.204 0 .161-.184.21-.456.21-1.308 0-2.248-.072-2.608-.072-.19 0-1.148.072-2.181.072-.274 0-.46-.024-.46-.21 0-.116.136-.204.321-.204.274 0 .644-.027.918-.092.526-.14.592-.663.62-2.358l.182-11.546c0-.39.138-.66.343-.66.257 0 .525.295.871.638.254.252 3.274 3.344 6.205 6.208 1.375 1.35 4.057 4.101 4.351 4.375h.094L248.283 42c-.02-1.192-.204-1.537-.689-1.72-.293-.114-.774-.114-1.05-.114-.255 0-.321-.09-.321-.202 0-.165.207-.187.506-.187 1.054 0 2.129.046 2.563.046.227 0 .987-.046 1.97-.046.277 0 .459.022.459.187 0 .111-.114.202-.343.202-.21 0-.368 0-.622.07-.548.158-.706.506-.73 1.6l-.23 12.277c0 .436-.16.624-.323.624-.341 0-.615-.212-.819-.417-1.262-1.167-3.783-3.573-5.89-5.61-2.201-2.106-4.329-4.47-4.724-4.813h-.065l.234 7.95zm16.859-6.433c0-2.954 0-3.51-.022-4.124-.05-.663-.257-.895-.686-1.033a2.597 2.597 0 0 0-.734-.092c-.209 0-.322-.044-.322-.23 0-.112.163-.16.48-.16.758 0 2.133.048 2.702.048.506 0 1.811-.048 2.59-.048.255 0 .41.048.41.16 0 .186-.116.23-.32.23-.205 0-.37.023-.598.07-.545.091-.708.364-.752 1.055-.047.614-.047 1.17-.047 4.124v3.435c0 1.875 0 3.437.091 4.258.07.528.208.826.802.917.277.043.73.068 1.033.068.229 0 .323.113.323.204 0 .139-.168.21-.393.21-1.328 0-2.704-.071-3.255-.071-.453 0-1.828.07-2.632.07-.252 0-.39-.07-.39-.209 0-.09.07-.204.323-.204.3 0 .523-.025.708-.068.41-.09.529-.366.592-.939.097-.8.097-2.361.097-4.236v-3.435zm8.109-3.736c-.456-1.078-.753-1.256-1.49-1.441-.3-.071-.618-.071-.778-.071-.185 0-.23-.09-.23-.203 0-.165.208-.188.502-.188 1.078 0 2.225.05 2.933.05.504 0 1.557-.05 2.566-.05.252 0 .482.05.482.188 0 .134-.136.203-.322.203-.323 0-.616.022-.779.137a.428.428 0 0 0-.205.39c0 .252.185.778.46 1.466l3.387 8.728h.07c.873-2.016 3.455-8.289 3.94-9.574.089-.251.18-.553.18-.713 0-.206-.091-.272-.273-.343-.229-.07-.546-.091-.797-.091-.188 0-.345-.07-.345-.203 0-.138.179-.188.568-.188 1.012 0 1.903.05 2.155.05.345 0 1.285-.05 1.904-.05.248 0 .41.05.41.188 0 .134-.113.203-.318.203-.21 0-.65-.02-.99.228-.249.183-.526.482-1.05 1.718-.803 1.834-1.33 2.884-2.431 5.271-1.28 2.837-2.223 4.97-2.677 5.953-.503 1.12-.686 1.42-.963 1.42-.276 0-.437-.25-.827-1.166l-5.082-11.912zm17.179 3.734c0-2.954 0-3.51-.021-4.124-.048-.663-.229-.868-.874-1.056-.156-.046-.499-.069-.802-.069-.206 0-.339-.068-.339-.202 0-.14.156-.188.457-.188 1.053 0 2.334.048 2.908.048.642 0 5.11.024 5.503 0 .358-.025.684-.092.84-.117.116-.024.231-.089.32-.089.119 0 .138.09.138.181 0 .138-.111.367-.16 1.261-.02.205-.067 1.053-.111 1.285-.022.088-.071.319-.227.319-.144 0-.166-.092-.166-.252 0-.136-.02-.484-.135-.708-.161-.348-.32-.622-1.33-.713-.34-.045-2.748-.09-3.162-.09-.088 0-.134.065-.134.18v4.812c0 .114.022.205.134.205.46 0 3.068 0 3.53-.042.481-.049.777-.09.962-.296.157-.14.227-.254.318-.254.097 0 .165.089.165.204 0 .114-.052.436-.165 1.42-.042.39-.09 1.171-.09 1.308 0 .16-.024.432-.206.432-.139 0-.183-.063-.183-.158-.024-.205-.024-.46-.072-.713-.112-.388-.363-.687-1.12-.751-.367-.05-2.654-.091-3.158-.091-.093 0-.115.091-.115.205v1.556c0 .664-.026 2.31 0 2.888.046 1.325.66 1.626 2.724 1.626.53 0 1.377-.025 1.902-.255.506-.23.732-.642.87-1.44.045-.208.092-.301.231-.301.157 0 .18.251.18.458 0 .435-.158 1.765-.275 2.157-.135.499-.318.499-1.076.499a88.59 88.59 0 0 1-3.71-.065c-.985-.027-1.745-.049-2.337-.049-.227 0-.664.022-1.142.022-.485.027-.987.05-1.402.05-.249 0-.387-.072-.387-.21 0-.091.069-.205.323-.205.296 0 .525-.025.708-.067.412-.091.528-.458.594-1.034.092-.823.092-2.359.092-4.142v-3.435zm15.074 1.512c0 .204.047.274.182.343.44.135 1.034.182 1.536.182.8 0 1.077-.07 1.419-.32.619-.435 1.306-1.284 1.306-2.888 0-2.743-1.877-3.457-3.067-3.457-.508 0-.99.023-1.194.07-.135.047-.182.111-.182.276v5.794zm-2.566-1.51c0-2.954 0-3.509-.025-4.124-.044-.666-.227-.871-.87-1.056-.158-.046-.502-.07-.798-.07-.208 0-.348-.068-.348-.201 0-.141.165-.188.462-.188 1.053 0 2.334.047 2.75.047.684 0 2.522-.047 3.134-.047 1.283 0 2.749.114 3.825.825.573.39 1.424 1.38 1.424 2.685 0 1.438-.83 2.718-2.795 4.3 1.784 2.201 3.207 3.965 4.418 5.179 1.123 1.12 1.834 1.211 2.156 1.286.208.042.322.042.48.042.162 0 .251.11.251.204 0 .16-.138.21-.39.21h-1.925c-1.117 0-1.67-.114-2.195-.392-.871-.432-1.631-1.35-2.749-2.862-.802-1.051-1.653-2.36-1.905-2.658a.462.462 0 0 0-.365-.139l-1.809-.043c-.092 0-.16.043-.16.157v.277c0 1.81.022 3.32.116 4.145.066.575.158.942.779 1.032.297.044.729.069.985.069.155 0 .25.11.25.204 0 .139-.161.21-.412.21-1.165 0-2.841-.071-3.139-.071-.39 0-1.671.07-2.472.07-.252 0-.392-.07-.392-.209 0-.093.07-.204.322-.204.3 0 .526-.025.708-.07.415-.089.53-.456.597-1.03.092-.825.092-2.362.092-4.146v-3.432zm14.386 8.838c-.318-.138-.387-.226-.387-.663 0-1.054.091-2.267.113-2.589 0-.298.095-.5.252-.5.182 0 .207.182.207.318 0 .254.07.66.18 1.009.432 1.44 1.947 1.922 3.209 1.922 1.738 0 2.795-1.098 2.795-2.472 0-.85-.205-1.695-1.991-2.752l-1.17-.685c-2.384-1.4-3.16-2.705-3.16-4.422 0-2.379 2.289-3.916 5.082-3.916 1.31 0 2.337.18 2.868.321.18.047.27.113.27.251 0 .253-.064.802-.064 2.337 0 .415-.093.62-.259.62-.13 0-.201-.114-.201-.346 0-.185-.095-.78-.527-1.28-.298-.366-.94-.921-2.245-.921-1.443 0-2.748.76-2.748 2.087 0 .87.318 1.558 2.126 2.564l.827.46c2.66 1.466 3.481 2.953 3.481 4.717 0 1.444-.547 2.61-2.013 3.642-.967.689-2.295.802-3.373.802-1.164 0-2.398-.113-3.272-.504m12.894-8.838c0-2.954 0-3.51-.02-4.124-.043-.663-.251-.895-.686-1.033a2.551 2.551 0 0 0-.733-.092c-.21 0-.322-.044-.322-.23 0-.112.164-.16.482-.16.756 0 2.128.048 2.705.048.503 0 1.804-.048 2.583-.048.257 0 .418.048.418.16 0 .186-.117.23-.326.23-.208 0-.36.023-.593.07-.548.091-.71.364-.754 1.055-.048.614-.048 1.17-.048 4.124v3.435c0 1.875 0 3.437.091 4.258.072.528.206.826.803.917.274.043.732.068 1.029.068.234 0 .323.113.323.204 0 .139-.163.21-.39.21-1.332 0-2.707-.071-3.252-.071-.46 0-1.833.07-2.635.07-.25 0-.388-.07-.388-.209 0-.09.065-.204.32-.204.295 0 .525-.025.709-.068.413-.09.529-.366.598-.939.086-.8.086-2.361.086-4.236v-3.435zm11.436-4.449l-3.003.072c-1.17.021-1.649.157-1.948.597a2.404 2.404 0 0 0-.343.658c-.044.168-.089.26-.226.26s-.188-.12-.188-.324c0-.323.393-2.198.439-2.36.045-.25.116-.366.227-.366.164 0 .37.16.869.228.599.068 1.353.092 2.019.092h8.177c.645 0 1.077-.047 1.371-.092.326-.049.482-.09.553-.09.137 0 .163.116.163.412 0 .41-.047 1.853-.047 2.356-.025.205-.069.32-.187.32-.156 0-.205-.088-.228-.384l-.022-.21c-.044-.5-.573-1.097-2.382-1.117l-2.543-.052v7.88c0 1.785.022 3.322.117 4.17.065.551.179.919.779 1.007.274.045.732.07 1.026.07.227 0 .32.11.32.204 0 .138-.155.21-.386.21-1.334 0-2.678-.072-3.252-.072-.459 0-1.832.073-2.635.073-.253 0-.386-.073-.386-.211 0-.094.064-.205.315-.205.3 0 .55-.024.714-.069.41-.088.525-.456.595-1.031.092-.824.092-2.361.092-4.145v-7.881zm15.485 8.475c0-1.05-.182-1.462-.46-2.038-.132-.298-2.885-4.577-3.593-5.608-.504-.713-.916-1.17-1.311-1.375-.247-.14-.592-.254-.847-.254-.155 0-.295-.068-.295-.202 0-.14.14-.188.39-.188.344 0 1.857.048 2.519.048.437 0 1.373-.048 2.292-.048.182 0 .297.048.297.188 0 .157-.137.157-.457.25-.162.044-.277.138-.277.295 0 .158.097.393.252.664.367.597 3.003 5.154 3.345 5.705.25-.459 2.7-4.629 3.006-5.224.203-.431.296-.78.296-1.028 0-.183-.093-.368-.437-.437-.187-.045-.367-.068-.367-.225 0-.14.116-.188.34-.188.669 0 1.374.048 1.972.048.436 0 1.764-.048 2.154-.048.229 0 .367.048.367.16 0 .139-.162.23-.39.23-.205 0-.572.092-.87.227-.437.208-.62.393-1.056.92-.664.778-3.548 5.407-3.916 6.229-.296.71-.25 1.305-.25 1.949v1.554c0 .323 0 1.123.044 1.947.045.576.23.942.826 1.032.296.044.73.069 1.008.069.227 0 .345.11.345.204 0 .139-.165.21-.438.21-1.26 0-2.606-.071-3.159-.071-.506 0-1.858.07-2.613.07-.271 0-.433-.048-.433-.209 0-.093.09-.204.319-.204.274 0 .529-.025.714-.07.41-.089.57-.455.614-1.03.07-.825.07-1.625.07-1.948v-1.604z" fill="#472A2B"/><path d="M54.773 12.875c-.069 0-.138-.01-.2-.02a1 1 0 0 0 .8-.982.992.992 0 0 0-.8-.982 1.002 1.002 0 1 1 .2 1.984m0-2.438c-.794 0-1.431.645-1.431 1.436a1.432 1.432 0 1 0 2.865 0c0-.791-.644-1.436-1.434-1.436m-7.059-.688c-.072 0-.138-.01-.2-.017a1.218 1.218 0 0 0 0-2.401c.062-.01.128-.022.2-.022.671 0 1.214.55 1.214 1.222 0 .673-.543 1.218-1.214 1.218m0-2.958c-.968 0-1.74.782-1.74 1.74a1.738 1.738 0 1 0 3.477 0 1.74 1.74 0 0 0-1.737-1.74M39.57 8.807c-.07 0-.136-.013-.205-.022a1.424 1.424 0 0 0 1.233-1.412c0-.72-.535-1.317-1.233-1.417.07-.01.136-.019.205-.019.791 0 1.431.641 1.431 1.436 0 .792-.64 1.434-1.431 1.434m0-3.487a2.047 2.047 0 1 0 0 4.096 2.046 2.046 0 0 0 2.042-2.043A2.05 2.05 0 0 0 39.57 5.32M31.4 9.749c-.065 0-.133-.01-.2-.017a1.218 1.218 0 0 0 0-2.401c.067-.01.135-.022.2-.022.678 0 1.219.55 1.219 1.222 0 .673-.54 1.218-1.22 1.218m0-2.958c-.961 0-1.734.782-1.734 1.74a1.737 1.737 0 1 0 3.474 0c0-.958-.774-1.74-1.74-1.74m-7.057 6.084c-.07 0-.142-.01-.201-.02.454-.094.799-.5.799-.982a1 1 0 0 0-.8-.982.997.997 0 0 1 1.2.982 1 1 0 0 1-.998 1.002m0-2.438a1.436 1.436 0 0 0 0 2.87 1.436 1.436 0 0 0 0-2.87m5.95 13.423a.772.772 0 0 0-.205.024.874.874 0 1 1 0 1.702.876.876 0 0 0 1.078-.851.877.877 0 0 0-.873-.876m9.269.001a.787.787 0 0 0-.205.024.873.873 0 0 1 0 1.702.875.875 0 1 0 .205-1.727m9.267.001a.793.793 0 0 0-.203.024.876.876 0 0 1 .679.851.877.877 0 0 1-.679.851.877.877 0 0 0 1.08-.851.878.878 0 0 0-.877-.876" fill="#8E1537"/><path d="M27.135 19.239c-.413.092-.718.464-.773.943-.007.061-.353-.055-.33-.156.131-.529.57-.89 1.103-.787zm.021-1.994c.487 0 .9.282 1.109.538.484.56.24.804.173.676-.375-.6-.78-1.088-1.276-1.12-.134-.003-.09-.094-.006-.094zm6.713.091c-.203-.061-.13-.126.046-.106 1.447.195 1.775 2.44.27 2.99-.262.095-.236.073-.036-.083 1.003-.795.832-2.473-.28-2.8zm11.809 1.903c-.408.092-.713.464-.773.943-.01.061-.355-.055-.328-.156.134-.529.57-.89 1.1-.787zm.022-1.994c.492 0 .898.282 1.112.538.48.56.235.804.171.676-.377-.6-.78-1.088-1.273-1.12-.138-.003-.094-.094-.01-.094zm6.709.091c-.2-.061-.126-.126.05-.106 1.445.195 1.778 2.44.266 2.99-.254.095-.235.073-.03-.083 1.001-.795.836-2.473-.286-2.8zm.407 4.963c-1.167 0-2.075-.408-2.642-1.044h.431c.356 0 .654-.252.654-.56 0-.311-.298-.565-.654-.565h-.463c1.046-1.564 2.247-.85 2.247.219 0 .055 0 .114-.01.166a1.805 1.805 0 0 0 1.762-1.801c0-1.498-2.596-2.959-4.266-.136a4.49 4.49 0 0 0 .268-1.555c0-1.747-1.311-3.166-1.311-3.166s-1.318 1.42-1.318 3.166c0 .55.091 1.029.226 1.436-1.67-2.665-4.197-1.223-4.197.255 0 .982.794 1.779 1.772 1.8a.943.943 0 0 1-.02-.165c0-1.069 1.212-1.783 2.256-.22h-.523c-.363 0-.66.255-.66.566 0 .308.297.56.66.56h.256c-.696.636-1.74 1.044-2.907 1.044-1.924 0-3.876-1.093-4.177-2.803l1.65.517c.252.08.41-.063.41-.302v-2.15c0-.217-.153-.377-.41-.3l-1.504.473.582-2.09c.084-.264-.01-.45-.339-.45h-2.052c-.33 0-.425.186-.343.45l.587 2.09-1.51-.474c-.251-.076-.404.084-.404.3v2.15c0 .24.16.383.404.303l1.646-.516c-.316 1.709-2.265 2.802-4.18 2.802-1.17 0-2.215-.408-2.912-1.044h.237c.355 0 .65-.252.65-.56 0-.311-.295-.565-.65-.565H31.6c1.034-1.564 2.249-.85 2.249.219a.866.866 0 0 1-.015.166 1.804 1.804 0 0 0 1.765-1.801c0-1.498-2.604-2.959-4.264-.136.152-.43.271-.948.271-1.555 0-1.747-1.32-3.166-1.32-3.166s-1.318 1.42-1.318 3.166c0 .55.094 1.029.23 1.436-1.67-2.665-4.19-1.223-4.19.255a1.8 1.8 0 0 0 1.762 1.8.863.863 0 0 1-.017-.165c0-1.069 1.208-1.783 2.25-.22h-.524c-.357 0-.653.255-.653.566 0 .308.296.56.653.56h.28c-.692.636-1.738 1.044-2.908 1.044-2.27 0-3.17-2.194-3.644-3.865 2.692-4.17 9.011-7.02 16.095-7.326v3.33h2.512v-3.33c7.04.314 13.37 3.154 16.068 7.287-.582 1.675-1.779 3.904-4.066 3.904zm-4.032-7.749c.052-.09.032-.059.086-.15.385.573.874 1.555.874 2.623 0 .289 0 .484-.067.802-.071.32-.323.584-.56.755a4.42 4.42 0 0 0 .272-1.557c0-.886-.274-1.9-.605-2.473zm.045 11.438zm-9.268 0c-.691 0-1.259-.56-1.259-1.251a1.255 1.255 0 1 1 1.259 1.251zM30.236 14.55c.059-.09.037-.059.094-.15.388.573.868 1.555.868 2.623 0 .289-.002.484-.066.802-.074.32-.328.584-.557.755a4.63 4.63 0 0 0 .266-1.557c0-.886-.266-1.9-.605-2.473zm.055 11.438c-.696 0-1.261-.56-1.261-1.251a1.256 1.256 0 1 1 1.262 1.251zm26.762-9.423C53.588 12.44 46.94 9.848 39.556 9.848c-7.427 0-14.04 2.588-17.496 6.717h-2.458l4.705 11.453h30.386l4.817-11.453h-2.457zM38.543 0h2.038c.262 0 .351.192.282.395l-.592 1.72 1.214-.376c.214-.076.342.053.342.253v1.803c0 .178-.123.326-.342.249l-1.099-.34.457 1.317a.316.316 0 0 1-.02.242 2.426 2.426 0 0 0-1.26-.356c-.46 0-.884.131-1.26.356a.329.329 0 0 1-.016-.242l.454-1.317-1.104.34c-.214.077-.337-.071-.337-.25V1.993c0-.2.128-.33.337-.253l1.22.376-.592-1.72c-.07-.203.023-.395.278-.395m20.296 55.674c0 16.867-10.228 19.204-16.338 20.598l-.345.084.07-21.874h16.613v1.192zM42.132 30.507H58.72v18.617H42.127l.005-18.617zM20.42 49.124V30.507H37l.005 18.617H20.421zm16.213 27.149c-6.113-1.394-16.335-3.731-16.335-20.598v-1.192h16.609l.07 21.874c-.115-.027-.23-.057-.344-.084zM59.46 29.367H19.67c-.487 0-.62.17-.62.558v25.75c0 17.736 11.242 20.304 17.27 21.686 1.231.284 2.29.528 2.974.825 0 0 .234.1.273.1.045 0 .276-.1.276-.1.682-.297 1.74-.54 2.97-.825 6.033-1.382 17.27-3.95 17.27-21.686v-25.75c0-.388-.134-.558-.623-.558z" fill="#8E1537"/><path d="M27.581 38.129v.35c0 4.225 2.13 7.15 6.346 8.685l.24-.65c-1.34-.494-2.443-1.129-3.321-1.898h.797v-.276h-1.1a7.502 7.502 0 0 1-.627-.694h1.18v-.274h-1.388a7.112 7.112 0 0 1-.43-.696h1.548v-.281h-1.698c-.108-.218-.205-.456-.299-.686h1.615v-.283H28.73c-.077-.225-.13-.459-.188-.691h1.572v-.279h-1.628c-.04-.225-.081-.459-.109-.694h1.577v-.283h-1.609a9.396 9.396 0 0 1-.045-.65h.687c1.533 0 2.613.507 3.21 1.498.93 1.538.46 3.78.005 4.647l.624.325c.592-1.142 1.012-3.622-.025-5.33-.505-.838-1.573-1.84-3.814-1.84H27.58zm16.817-1.386l.398.252a.817.817 0 0 0 .146-.452c0-.673-.948-1.048-.948-1.913 0-.384.18-.868.646-1.533.054.254.134.51.23.77.16.394.272.717.272.998 0 .24-.088.444-.299.64l.318.352c.343-.305.454-.648.454-.996 0-.763-.545-1.547-.545-2.083 0-.126.021-.24.09-.34l-.38-.282c-.945 1.098-1.255 1.885-1.255 2.485 0 1.04.937 1.508.937 1.89a.418.418 0 0 1-.064.212" fill="#8E1537"/><path d="M27.376 34.018c.835 0 1.604-.156 2.236-.43-.2.36-.276.482-.271.486.4 1.15.436 2.556-.593 3.114l.25.607c1.325-.43 1.579-2.487 1.055-3.556.151-.261 1.024-1.94 1.024-1.94s-.391-.192-.634-.287c-.479.865-1.769 1.313-3.067 1.302-1.297.01-2.584-.437-3.064-1.302a14.43 14.43 0 0 0-.637.288c.005.012.874 1.678 1.026 1.94-.402.74-.402 2.553.633 3.335-.633.671-1.1 1.556-1.1 2.687 0 1.52.806 2.82 1.563 3.625.72.77 1.042.728 1.042 1.782 0 .57-.101 1.7-.101 1.7h.7s.168-1.607.066-2.144c1.076.537 1.903 1.133 1.903 2.144h.7c0-1.296-.756-1.95-2.06-2.648-1.885-.999-3.116-2.798-3.116-4.463 0-1.434.903-2.327 1.636-2.875-1.589-.306-1.616-1.977-1.152-3.309.002-.004-.077-.126-.274-.486.634.274 1.404.43 2.235.43" fill="#8E1537"/><path d="M28.48 35.538a.24.24 0 0 1-.239-.239c0-.138.108-.25.239-.25.14 0 .25.112.25.25 0 .13-.11.24-.25.24m-2.209 0a.24.24 0 0 1-.24-.24c0-.138.105-.25.24-.25a.25.25 0 0 1 .248.25c0 .13-.112.24-.248.24m2.209-.867c-.008 0-.017.003-.03.003-.53.01-.87.35-1.074.861-.201-.511-.542-.85-1.074-.861l-.03-.003a.624.624 0 1 0 0 1.248c.22 0 .41-.11.518-.283.383.434.346.866.346 1.505h.485c0-.639-.037-1.071.346-1.505a.594.594 0 0 0 .513.283c.346 0 .627-.28.627-.62a.628.628 0 0 0-.627-.628m19.839 4.902h1.93v-.281h-1.6a8.51 8.51 0 0 0 .48-.388h1.832v-.279h-1.42c.366-.223.766-.374 1.23-.374 1.404 0 1.793 1.25 2.572 1.685h-5.545c.158-.073.52-.363.52-.363m1.44-2.612c0-.195.386-.417.882-.417.502 0 .891.222.891.417 0 .191-.39.414-.89.414-.497 0-.883-.223-.883-.414m5.544-1.97c-2.569 0-2.589 3.6-.993 3.6a.749.749 0 0 0 .428-.123s-.156-.217-.292-.419c-.32-.033-.536-.472-.536-.908 0-1.994 3.04-2.044 3.04.59 0 1.96-1.11 3.02-2.333 3.637-1.345.673-2.801.705-2.801 1.744 0 .668.546.896.994 1.181.36.226.437.374.45.546.01.222-.169.41-.492.41l-1.722.01c-.62.002-1.55-.01-2.018-.01-.548 0-.679-.545-.173-.881.434-.279 1.118-.519 1.118-1.256 0-.837-.682-.888-2.226-1.17-1.13-.202-3.554.067-3.528-3.881h.89c0 .044-.01.09-.01.135 0 1.182.613 2.103 1.555 2.103.195 0 .375-.03.542-.081h7.966v-.282h-.587c-.688 0-2.002-2.127-3.063-2.287.279-.15.497-.407.497-.688 0-.501-.603-.899-1.368-.899-.757 0-1.354.398-1.354.899 0 .313.229.582.584.737-.67.225-1.199.664-1.682 1.066-.536.45-1 .85-1.535.834-.587-.012-.854-.755-.854-1.604 0-.222-.005-.372.032-.632h-2.32v.353c0 4.444 2.031 4.683 4.169 4.943 0 0 1.559.155 1.559.466 0 .48-1.404.578-1.404 1.683 0 .802.505 1.145 1.463 1.145l1.747.002 1.443-.002c.955 0 1.463-.343 1.463-1.145 0-1.105-1.406-1.202-1.406-1.683 0-.414 1.108-.535 2.268-1.093 1.362-.646 2.838-1.828 2.838-4.294 0-1.914-1.21-2.746-2.35-2.746M33.666 69.227h-3.001v-.82c0-.382.743-.504 1.503-.504.762 0 1.498.122 1.498.505v.819zm-2.797-6.554l.092-.69h2.707l.304.68-3.103.01zm1.358.97h-1.488l.091-.686h1.892c-.226.16-.39.387-.495.686zm-.151.975h-1.424l.05-.691h1.448a3.47 3.47 0 0 0-.074.691zm-.145.97h-1.279v-.691h1.42a2.173 2.173 0 0 1-.141.69zm-1.279.84v-.562h1.125c-.21.311-.554.526-1.125.563zm-1.045-4.714c-1 0-1.427-.81-1.427-2.53l.017-.883h2.821l.017.884c0 1.72-.424 2.529-1.428 2.529zm.58 2.496h-1.16s-.198-1.477-.296-2.267c.234.138.55.246.876.246.328 0 .641-.108.883-.246-.103.79-.303 2.267-.303 2.267zm-3.048.408a3.26 3.26 0 0 0-.077-.691h1.45l.045.691H27.14zm1.418.97h-1.273a2.124 2.124 0 0 1-.143-.691h1.416v.69zm0 .84c-.56-.036-.914-.25-1.122-.562h1.122v.563zm-1.57-2.785a1.374 1.374 0 0 0-.497-.686h1.893l.088.686h-1.484zm-1.748-.98l.309-.68h2.701l.097.69-3.107-.01zm.723-1.65h2.009c.052.14.123.279.204.4l.04.293h-2.552l.299-.694zm.422-.972h1.362c.027.232.066.47.13.695h-1.794l.302-.695zm.422-.97h.898s0 .494.017.69h-1.206l.29-.69zm.424-.973h.484l-.002.691h-.782l.3-.69zm.595-1.388h3.563l.479 1.11h-4.521l.479-1.11zm4.46 2.08h-.78v-.692h.478l.302.691zm.418.972h-1.214c.02-.197.02-.691.02-.691h.9l.294.69zm.427.974h-1.79c.061-.224.1-.463.126-.695h1.366l.3.695zm.422.97h-2.549l.035-.294c.083-.12.153-.259.202-.4h2.013l.299.694zm1.22 1.173l-2.969-6.828h-4.395l-2.966 6.828c-.621.325-1 1-1 1.887v2.272h.665v-2.272c0-.905.468-1.444 1.244-1.444.779 0 1.131.208 1.131 1.427 0 1.413.783 2.338 2.075 2.338h.66V64.69h.78v2.398h.655c1.299 0 2.084-.925 2.084-2.338 0-1.22.342-1.427 1.125-1.427.772 0 1.236.528 1.245 1.412v4.493h-.791v-.814c0-.943-1.054-1.184-2.147-1.184-1.096 0-2.155.241-2.155 1.184v1.448h5.757v-5.123c-.008-.873-.385-1.536-.997-1.86zm-6.232 6.348h-3v-.82c0-.382.74-.504 1.5-.504s1.5.122 1.5.505v.819zm-1.5-1.998c-1.09 0-2.151.241-2.151 1.184v1.448h4.302v-1.448c0-.943-1.057-1.184-2.15-1.184z" fill="#8E1537"/><path d="M78.295 76.029c-1.883.093-6.324.77-11.087 1.947-3.113.777-6.336 1.756-9.048 2.946l.005-4.207c0-.01.006-.017.006-.028 0-.002-.006-.004-.006-.007v-.007.002c-.012-.888-1.99-1.643-3.533-1.996 1.695-1.269 5.675-2.86 10.006-4.101 4.685-1.36 9.843-2.369 13.102-2.366l.555.002v7.815zm-20.939 10.16c-1.9 1.595-14.928 2.236-17.788 2.236-2.862 0-15.888-.641-17.792-2.236l-.02-7.79c3.375 1.74 14.099 2.049 17.812 2.049 3.711 0 14.433-.308 17.808-2.049l-.02 7.79zm-36.385-9.514l-.003-.002v.012l-.002.002.002.008c0 .463.006 2.283.01 4.227-2.718-1.19-5.937-2.17-9.05-2.946-4.763-1.178-9.204-1.854-11.084-1.947v-7.815l.55-.002c3.262-.003 8.412 1.007 13.104 2.366 4.329 1.242 8.309 2.832 10.004 4.1-1.538.354-3.519 1.109-3.531 1.997zm58.157-9.237c-.07-.41-.594-.81-1.805-1.176a267.168 267.168 0 0 0-6.533-1.889c-3.376-.921-3.613-2.06-2.577-3.825.247-.425-.197-.627-.896.057-1.08 1.056-1.004 3.244-1.004 5.42v3.213c-5.64 1.49-11.082 3.588-12.762 5.248l-.002 4.153c-4.636.834-11.422 1.004-13.981 1.004-2.561 0-9.346-.17-13.983-1.004l-.003-4.153c-1.677-1.658-7.11-3.754-12.754-5.243v-3.218c0-2.176-.037-4.488-.994-5.42-.704-.682-1.11-.503-.893-.057 1.26 2.643.318 3.037-2.576 3.825-2.093.57-4.18 1.181-6.547 1.89-1.198.365-1.729.764-1.796 1.172L0 67.438v9.425s.266-.003.425-.003c1.504 0 6.237.677 11.3 1.927 3.206.79 6.547 1.829 9.253 3.05.005 2.255.008 4.426.008 4.68 2.067 2.367 16.749 2.705 18.582 2.705 1.826 0 16.517-.338 18.58-2.705l.008-4.68c2.706-1.221 6.047-2.26 9.255-3.05 5.06-1.25 9.793-1.927 11.296-1.927.163 0 .424.003.424.003v-9.231a.433.433 0 0 0 0-.185v-.01h-.003z" fill="#8E1537"/><path d="M28.104 85.53c-.334-.041-.762-.135-1.083-.298a2.39 2.39 0 0 1 .128-.45c.32.164.676.258 1.009.295.462.057.7-.107.7-.46 0-.776-1.833-.9-1.833-1.958 0-.664.58-.95 1.393-.856.256.027.596.098.845.177a2.04 2.04 0 0 1-.086.464 4.157 4.157 0 0 0-.844-.195c-.545-.063-.715.123-.715.432 0 .691 1.833.844 1.833 1.957 0 .642-.518.987-1.347.893m4.171-2.841l-1.02-.088v3.186l-.584-.05v-3.19l-1.031-.09v-.466l2.678.234c0 .154-.017.319-.043.465m1.955 3.371c-.923-.057-1.45-.42-1.45-1.604v-2.196l.594.035v2.295c0 .682.187.944.868.986.605.037.888-.207.888-.875V82.41l.548.032v2.196c0 .958-.377 1.49-1.448 1.424m3.82-3.097a7.722 7.722 0 0 0-.751.01v2.744c.198.021.529.049.74.056.778.022 1.19-.427 1.19-1.39 0-1.103-.585-1.403-1.18-1.42m.025 3.279c-.38-.015-.95-.051-1.365-.12v-3.591c.346-.033.995-.044 1.357-.033 1.002.03 1.795.576 1.795 1.847 0 1.29-.753 1.924-1.787 1.897m2.602-.041V82.55l.592-.018v3.653l-.592.02zm3.053-3.007a.735.735 0 0 1-.05-.259l-.044.002c0 .104-.01.18-.037.264l-.49 1.387 1.09-.057-.469-1.337zm1.022 2.85l-.406-1.089-1.389.075-.392 1.135a3.01 3.01 0 0 1-.533-.03 67.11 67.11 0 0 1 1.34-3.699l.624-.032a92.426 92.426 0 0 1 1.323 3.551 2.86 2.86 0 0 1-.567.088zm2.413-.196v-3.655l.59-.047V85.8l-.59.05zm4.148-.379l-1.665-2.381a2.33 2.33 0 0 1-.2-.382l-.037.015c.012.137.027.299.027.407v2.521l-.526.06v-3.62c.175-.05.44-.096.605-.114l1.594 2.283c.069.098.148.252.197.375l.042-.012a3.288 3.288 0 0 1-.032-.416v-2.415l.528-.062v3.64c-.142.037-.38.087-.533.1m3.858-22.46c-.091-.233-.388-.235-.405.044-.057.915-.918 1.944-1.824 2.904.05-.69.013-1.483-.136-2.413-.058-.356-.454-.454-.51.041-.02.899-1.034 2.106-1.83 3.225.72-1.62 1.467-3.291.172-6.536-.21-.52-.513-.457-.472.102.06.908-.335 1.753-.782 2.735-.404.87-.836 1.79-1.026 2.912-.531-1.174-1.103-2.398-.967-3.222.045-.493-.354-.5-.482-.16-.762 2.054-.791 3.52-.483 4.636-.733-.886-1.298-2.128-1.07-3.76.054-.509-.285-.518-.465-.153-.078-.119-.172-.237-.246-.351l-.141-.259a3.849 3.849 0 0 1-.27-.646h1.027v-.265h-1.095a3.067 3.067 0 0 1-.089-.64h1.125v-.265h-1.123c.012-.232.052-.45.104-.65H45.3v-.258h-1.041c.042-.188.202-.476.299-.647h1.055v-.264h-.886c.397-.564.919-1.004 1.375-1.246-.05.165-.084.317-.076.474.034.716.553 1.52 1.122 2.285.444.595.76.999.972 1.337.116.19.264.42.535.88.062.097.304-.47.418-.734.441-1.054.745-2.22.745-3.15 0-1.18-.284-2.33-1.454-2.456.7-.261 1.11-.232 1.732.139.154.088.154-.107.057-.268a.662.662 0 0 0-.224-.211c.306-.228.696-.02 1.145.234.293.165.606.4.979.459-.905.95-1.386 2.85-.39 5.606.141.387.49.412.691.02.052-.099.13-.257.193-.38h1.505v-.265h-1.367c.134-.242.397-.64.397-.64h1.575v-.265H53.29c.108-.148.488-.65.488-.65h1.444v-.258h-1.244c.155-.214.299-.432.424-.647h1.121v-.264h-.98c.158-.325.346-.841.22-1.346 1.096.34 1.596 1.447 1.596 2.783 0 1.105-.323 2.373-.88 3.553a7.078 7.078 0 0 0-.31-1.1m-3.419 6.124c.5-.588.906-1.346 1.095-2.397.923-.957 1.804-1.88 2.152-2.835.042.237.045.459.059.677.15 2.343-1.855 3.659-3.306 4.555m-2.236 2.208c.03-2.013.585-3.087 1.32-4.118.618-.874 1.298-1.767 1.614-2.682.114 1.051.047 1.895-.141 2.573-.52 1.828-2.166 2.527-2.793 4.227m-.802-4.523c.124-1.421.642-2.526 1.096-3.511.299-.644.587-1.267.725-1.905.252.821.348 1.517.343 2.134-.01 1.222-.466 2.135-.898 3.297a9.192 9.192 0 0 0-.52 1.96 17.232 17.232 0 0 0-.746-1.975m-2.008-.588c-.057-.702.041-1.537.358-2.543.133.957.553 1.892.987 2.867.557 1.236 1.026 2.134 1.179 3.558-.75-.402-2.403-2.286-2.524-3.882m.928 3.854c-.128-.046-.257-.083-.385-.132-.807-1.047-1.987-1.136-2.075-1.6-.05-.234-.225-.357-.343-.204-.43-.995-.331-2.135.024-3.47.163 1.91 1.138 3.04 2.08 3.78.37.633.847 1.133 1.279 1.587.226.25.488.435.717.605.01.031.02.067.037.1-.387-.335-.878-.52-1.334-.666m-1.133.654c-.607-.194-1.155-.372-1.335-.986-.066-.202-.078-.457-.052-.77a4.2 4.2 0 0 0 .526.308c.565.299 1.244.657 1.638 1.755a4.533 4.533 0 0 0-.777-.307m7.413-13.66c.152.304.315.536.315 1.025 0 1.108-1.833 2.842-2.191 3.945-.412-1.746-.82-3.936 1.138-5.648.088-.074.034-.13-.058-.098-1.087.365-1.653-.748-2.85-.748-.3 0-.38.121-.67.365-.553-.12-1.471.04-1.841.415-.291.3-.157.508.034.508 2.196 0 1.471 3.75.832 4.896-.4-.973-1.885-2.152-1.924-3.4-.02-.633.322-1.079.493-1.276-2.147 0-3.667 2.327-3.667 4.011 0 .893.242 1.915 1.103 2.988-.592 1.679-.833 3.029-.182 4.393.07.15.148.274.237.402-.163 1.764.82 2.051 1.673 2.327.505.163.945.308 1.118.686.18.392.53.31.47-.116a4.362 4.362 0 0 0-.325-1.17c.621.24 1.16.654 1.48 1.094.42.574.736.42.736.204 0-.002-.003-.007-.003-.012.395-1.451 1.205-1.624 2.24-2.332 1.454-.987 3.09-1.84 3.395-4.148.956-1.508 1.562-3.294 1.562-4.791 0-2.041-1.127-3.52-3.115-3.52m8.963 19.751l-.207-2.468c-.008-.07-.008-.23-.008-.333l-.037.012c-.01.128-.04.27-.063.359l-.845 2.79-.503.158-.844-2.238a1.92 1.92 0 0 1-.062-.319l-.037.015c0 .096-.004.274-.01.338l-.244 2.613c-.14.04-.34.099-.461.114.09-1.202.207-2.406.355-3.637l.61-.197.866 2.281c.031.095.066.233.084.368l.034-.012a1.82 1.82 0 0 1 .081-.424l.85-2.836.626-.2a84.92 84.92 0 0 1 .336 3.409c-.16.078-.362.152-.52.206m2.884-3.932c-.644.163-.974.575-.974 1.62 0 .981.293 1.304.98 1.13.678-.172.976-.618.976-1.623 0-1.033-.34-1.292-.982-1.127m.005 3.198c-.99.247-1.569-.167-1.569-1.403 0-1.222.6-2 1.57-2.244.986-.251 1.569.175 1.569 1.426 0 1.252-.623 1.982-1.57 2.221m3.567-4.04a6.065 6.065 0 0 0-.53.14v1.275l.466-.1c.494-.1.782-.372.782-.836 0-.446-.268-.573-.718-.479m.985 2.981l-.315-.511c-.215-.355-.445-.64-.64-.772l-.56.12v1.454l-.553.119v-3.507c.437-.14.78-.234 1.11-.303.682-.146 1.254.002 1.254.755 0 .488-.323.903-.78 1.113.208.118.445.35.65.666l.426.679c-.177.08-.405.148-.592.187m3.548-.682l-2.21.395v-3.538l2.165-.39c0 .138-.017.313-.046.46l-1.558.278v1.019l1.18-.208v.445l-1.18.21v1.174l1.696-.304c0 .143-.015.307-.047.46m1.763-.219c-.327.049-.736.069-1.047-.002.02-.159.072-.339.123-.474a2.6 2.6 0 0 0 .973.03c.444-.07.674-.29.674-.63 0-.758-1.765-.4-1.765-1.424 0-.642.558-1.071 1.337-1.19.25-.041.578-.058.82-.049a2.09 2.09 0 0 1-.087.472 4.115 4.115 0 0 0-.811.027c-.526.081-.689.31-.689.607 0 .671 1.767.345 1.767 1.421 0 .62-.496 1.088-1.295 1.212M3.24 71.198a.817.817 0 0 1-.047-.26l-.04-.004a.607.607 0 0 1-.042.246l-.468 1.256 1.053.139-.456-1.377zm.982 2.946l-.385-1.128-1.337-.178-.376 1.022a2.897 2.897 0 0 1-.51-.121c.37-1.088.812-2.215 1.283-3.34l.605.086a133 133 0 0 1 1.273 3.674 3.027 3.027 0 0 1-.553-.015zm2.273-1.238l-.646-.12v1.22c.224.067.431.114.58.145.516.097.774-.09.774-.522 0-.383-.275-.637-.708-.723m-.092-1.575c-.157-.032-.325-.05-.554-.078v1.15l.614.115c.393.074.631-.108.631-.493 0-.37-.238-.61-.69-.694m.037 3.23a11.34 11.34 0 0 1-1.135-.288v-3.48c.33.026.743.07 1.078.136.763.144 1.258.498 1.258 1.155 0 .39-.246.622-.562.691v.032c.444.202.705.524.705.967 0 .75-.606.928-1.344.788m4.293.863l-2.186-.49v-3.537l2.146.48c0 .135-.014.302-.05.44l-1.539-.345v1.019l1.17.262v.446l-1.17-.264v1.17l1.68.38c0 .14-.016.299-.051.44m2.054.569c-.867-.228-1.367-.676-1.367-1.821v-2.127l.557.143v2.224c0 .66.18.947.82 1.115.57.147.832-.04.832-.687V72.62l.518.136v2.127c0 .925-.36 1.372-1.36 1.113m4.467 1.274l-1.544-2.971a3.183 3.183 0 0 1-.183-.45l-.04-.004c.018.14.027.303.027.404v2.446l-.489-.156v-3.504c.162.02.406.08.563.131l1.481 2.848c.065.126.138.306.183.44l.039.006a3.342 3.342 0 0 1-.03-.414v-2.344l.492.155v3.526a4.178 4.178 0 0 1-.5-.113m3.346-1.877l-.923-.356v3.09l-.528-.21v-3.084l-.939-.366v-.451l2.437.94c0 .148-.017.306-.046.437" fill="#8E1537"/><path d="M92 102.055l1-19 .5-4.5" fill="none"/></g></svg>