<svg width="29" height="29" xmlns="http://www.w3.org/2000/svg"><g fill="none"><path d="M28.886 14.462c0 7.975-6.487 14.462-14.462 14.462S0 22.437 0 14.462 6.487 0 14.462 0s14.424 6.487 14.424 14.462zM14.462.763C6.907.763.763 6.907.763 14.462S6.907 28.16 14.462 28.16s13.699-6.144 13.699-13.7c0-7.554-6.144-13.698-13.7-13.698z" fill="#8E1537"/><circle fill="#3E2B2F" cx="14.462" cy="14.462" r="12.707"/><path d="M8.318 10.226c-.343 1.87-1.068 3.053-1.602 6.03-.305 1.83.648 3.052 1.068 3.052.42 0 2.71-1.565 3.167-4.045.61-3.396-.84-3.625-.687-4.502.077-.344.344-.535.687-.535.687 0 1.527 1.298.84 5.037-.458 2.786-3.053 5.075-4.274 5.075-1.22 0-2.71-2.137-2.366-3.892.306-1.832 1.641-3.472 1.832-4.579-.61-.267-.992-.534-1.755-.534-.42.114-.802.305-1.107.649v-.65a2.918 2.918 0 0 1 1.793-.915c.954 0 1.183.42 1.908-.114l.496-.077zm7.327 8.967c.42-.076.801-.305 1.106-.61v.649c-.534.534-1.297.954-1.793.954-.954 0-1.374-.84-1.183-1.908l1.03-5.839c.115-.648.038-1.144-.305-1.144-.42.076-.801.305-1.107.648v-.648c.458-.534 1.107-.84 1.794-.916.954 0 1.374.801 1.183 1.908l-1.03 5.838c-.115.572-.039 1.068.305 1.068m.115-10.417c-.42 0-.802-.343-.802-.763v-.19c.114-.535.61-.916 1.145-.955.458 0 .8.344.8.802v.152c-.114.535-.571.954-1.144.954M20.758 20.3c-2.251 0-3.282-2.06-2.786-4.808.573-3.243 2.9-5.266 4.58-5.266 1.83 0 2.289 1.145 2.174 1.832-.076.458-.343.916-.915.916-1.145 0-.306-1.832-1.412-1.832-.916 0-2.328 1.45-2.824 4.388-.382 2.213.229 3.702 1.908 3.702.649 0 1.603-.42 2.404-1.26l.267.535C23.2 19.613 21.94 20.3 20.758 20.3" fill="#FFF"/></g></svg>